<?xml version="1.0" encoding="UTF-8" standalone="no"?>
<svg
   viewBox="0 0 627.7 719.96002"
   version="1.1"
   id="svg125"
   sodipodi:docname="FORAGER_HEX2.svg"
   width="627.70001"
   height="719.96002"
   inkscape:version="1.1.2 (b8e25be833, 2022-02-05)"
   xmlns:inkscape="http://www.inkscape.org/namespaces/inkscape"
   xmlns:sodipodi="http://sodipodi.sourceforge.net/DTD/sodipodi-0.dtd"
   xmlns="http://www.w3.org/2000/svg"
   xmlns:svg="http://www.w3.org/2000/svg">
  <sodipodi:namedview
     id="namedview127"
     pagecolor="#ffffff"
     bordercolor="#666666"
     borderopacity="1.0"
     inkscape:pageshadow="2"
     inkscape:pageopacity="0.0"
     inkscape:pagecheckerboard="0"
     showgrid="false"
     inkscape:zoom="0.96574036"
     inkscape:cx="92.675013"
     inkscape:cy="305.46513"
     inkscape:window-width="1920"
     inkscape:window-height="1009"
     inkscape:window-x="-8"
     inkscape:window-y="-8"
     inkscape:window-maximized="1"
     inkscape:current-layer="svg125" />
  <defs
     id="defs71">
    <style
       id="style69">.i{fill:#8ba58e;stroke:#8ba58e;}.i,.j{stroke-miterlimit:10;}.k{fill:#192a38;}.l{fill:#528084;}.j{fill:#fff;stroke:#fff;}</style>
  </defs>
  <g
     id="a"
     transform="translate(-740.33,-108.43)">
    <path
       class="l"
       d="m 740.33,296.26 v 344.3 c 0,5.6 2.99,10.78 7.84,13.58 l 298.17,172.15 c 4.85,2.8 10.83,2.8 15.68,0 l 298.17,-172.15 c 4.85,-2.8 7.84,-7.98 7.84,-13.58 v -344.3 c 0,-5.6 -2.99,-10.78 -7.84,-13.58 L 1062.02,110.53 c -4.85,-2.8 -10.83,-2.8 -15.68,0 L 748.17,282.68 c -4.85,2.8 -7.84,7.98 -7.84,13.58 z"
       id="path73" />
  </g>
  <g
     id="b"
     transform="translate(-740.33,-108.43)">
    <g
       id="g84">
      <path
         class="j"
         d="m 828.9,583.82 -3.63,3.63 v -44.01 h 3.63 z m 70.44,17.87 23.86,-20.88 -57.39,-111.59 -23.86,20.88 z m -44.33,-14.73 v -58.39 l -10.16,7.62 v 58.39 z"
         id="path76" />
      <path
         class="j"
         d="m 1024.37,537.29 v -6.93 h 43.02 v 6.93 z m 19.24,-16.77 c 2.51,2.05 5.72,3.28 9.2,3.28 3.48,0 6.69,-1.23 9.2,-3.28 h 15.59 l -9.24,6.93 h -41.08 l 9.24,-6.93 h 7.08 z m 36.91,7.66 -10.21,7.66 v -6.2 l 10.21,-7.66 z"
         id="path78" />
      <path
         class="j"
         d="m 1121.81,549.16 -24.37,-21.33 v -13.09 l 24.37,21.33 z m 55.79,-87.66 4.35,3.81 h -50.79 c -0.63,0 -1.2,0.39 -1.43,0.99 -0.22,0.59 -0.05,1.27 0.42,1.68 l 11.75,10.28 c 0.28,0.24 0.63,0.38 1,0.38 h 54.27 l 4.35,3.81 h -77.64 l -23.94,-20.95 h 77.64 z m 0,102.82 4.35,3.81 h -50.79 c -0.63,0 -1.2,0.4 -1.43,0.99 -0.22,0.59 -0.05,1.26 0.42,1.68 l 11.75,10.28 c 0.28,0.24 0.63,0.38 1,0.38 h 54.27 l 4.35,3.81 h -77.64 l -23.94,-20.95 h 77.64 z m -52.75,-13.33 V 536.9 h 79.21 v 14.09 z"
         id="path80" />
      <path
         class="j"
         d="m 1227,477.85 3.82,-2.7 v 50.01 c 0,0.57 0.32,1.1 0.83,1.36 0.22,0.11 0.46,0.17 0.7,0.17 0.31,0 0.62,-0.1 0.89,-0.28 l 10.31,-7.36 c 0.4,-0.29 0.64,-0.75 0.64,-1.24 v -52.23 l 3.82,-2.73 v 58.09 l -21,15 v -58.09 z m 24.05,107.25 v -51.54 h 48.99 l 26.03,51.54 z"
         id="path82" />
    </g>
    <g
       id="g94">
      <path
         class="i"
         d="M 841.83,595.82 H 818.62 V 536.7 h 23.21 z m -20.31,-62.02 9.19,-6.89 h 21.28 l -9.19,6.89 z m 8.7,6.53 h -6.53 c -0.8,0 -1.45,0.65 -1.45,1.45 v 48.96 c 0,0.1 0.01,0.19 0.03,0.29 0,0.04 0.02,0.08 0.03,0.12 0.02,0.05 0.03,0.1 0.05,0.15 0.02,0.05 0.05,0.09 0.07,0.13 0.02,0.04 0.04,0.08 0.06,0.12 0.05,0.08 0.11,0.15 0.18,0.22 v 0 c 0.07,0.07 0.14,0.13 0.22,0.18 0.04,0.02 0.08,0.04 0.11,0.06 0.05,0.02 0.09,0.05 0.14,0.07 0.05,0.02 0.1,0.03 0.15,0.05 0.04,0.01 0.08,0.03 0.12,0.04 0.09,0.02 0.19,0.03 0.28,0.03 h 13.06 c 0.8,0 1.45,-0.65 1.45,-1.45 v -48.96 c 0,-0.8 -0.65,-1.45 -1.45,-1.45 h -6.53 z m 5.08,48.96 v -3.63 h -4.48 l -3.63,3.63 h 8.1 z m 0,-46.06 h -3.63 v 39.53 h 3.63 z"
         id="path86" />
      <path
         class="i"
         d="m 927.78,549.93 c -1.07,-4.77 -1.61,-9.68 -1.61,-14.67 0,-36.99 30.09,-67.08 67.08,-67.08 2.78,0 5.27,1.42 6.71,3.62 -0.88,-0.22 -1.78,-0.34 -2.7,-0.34 -38.6,0 -70,31.4 -70,70 0,2.84 0.17,5.67 0.52,8.47 z m 65.47,36.37 c 26.55,0 48.42,-20.37 50.82,-46.3 h 1.42 c -0.06,0.48 -0.1,0.96 -0.1,1.46 0,26.54 -21.59,48.12 -48.13,48.12 -10.76,0 -20.99,-3.6 -29.25,-9.93 7.57,4.32 16.2,6.65 25.24,6.65 z m 62.71,-72.19 c -2.81,0 -5.1,-2.29 -5.1,-5.1 0,-2.81 2.29,-5.1 5.1,-5.1 2.81,0 5.11,2.29 5.11,5.1 0,2.81 -2.29,5.1 -5.11,5.1 z"
         id="path88" />
      <path
         class="i"
         d="m 1121.67,497.55 -24.37,-21.33 v -13.09 l 24.37,21.33 z m 0,102.83 -24.37,-21.33 v -13.09 l 24.37,21.33 z m 55.79,-87.67 4.35,3.81 h -50.79 c -0.63,0 -1.2,0.39 -1.43,0.99 -0.22,0.59 -0.05,1.26 0.42,1.68 l 11.75,10.28 c 0.28,0.24 0.63,0.38 1,0.38 h 54.27 l 4.35,3.81 h -77.64 l -23.94,-20.95 h 77.64 z m -52.75,-13.33 v -14.09 h 79.21 v 14.09 z m 0,102.83 v -14.09 h 79.21 v 14.09 z"
         id="path90" />
      <path
         class="i"
         d="m 1247.87,534.82 v 50.84 l -21,15 v -50.84 z m 3.06,-73.62 h 46.58 c 16.21,0 29.4,13.19 29.4,29.4 0,16.21 -13.19,29.4 -29.4,29.4 h -46.58 v -58.79 z"
         id="path92" />
    </g>
    <g
       id="g104">
      <path
         class="k"
         d="m 926.42,580.67 c 0.3,0.59 0.17,1.32 -0.34,1.76 l -26.03,22.78 c 0,0 -0.03,0.02 -0.04,0.04 l -0.04,0.04 c 0,0 0,0 0,0 -0.25,0.22 -0.58,0.35 -0.94,0.35 H 781.51 c -0.51,0 -0.97,-0.26 -1.24,-0.69 -0.17,-0.43 -0.17,-0.97 -0.05,-1.42 l 58.75,-114.25 c 0,0 0.01,-0.02 0.02,-0.03 0.01,-0.02 0.03,-0.05 0.04,-0.07 0.03,-0.04 0.05,-0.08 0.08,-0.12 0.02,-0.02 0.03,-0.04 0.05,-0.06 0.04,-0.04 0.07,-0.08 0.11,-0.11 0.01,-0.01 0.02,-0.02 0.03,-0.04 L 865.41,466 c 0.34,-0.29 0.79,-0.42 1.23,-0.33 0.44,0.09 0.81,0.36 1.02,0.76 l 58.76,114.25 z m -84.35,-43.58 h -23.21 v 59.12 h 23.21 z m 0.97,-2.9 9.19,-6.89 h -21.28 l -9.19,6.89 z m -12.57,6.53 h -6.53 c -0.8,0 -1.45,0.65 -1.45,1.45 v 48.96 c 0,0.09 0.01,0.19 0.03,0.28 0,0.04 0.02,0.08 0.03,0.12 0.02,0.05 0.03,0.1 0.05,0.15 0.02,0.05 0.05,0.09 0.07,0.13 0.02,0.04 0.04,0.08 0.06,0.12 0.05,0.08 0.11,0.15 0.18,0.22 v 0 c 0.07,0.07 0.14,0.13 0.22,0.18 0.04,0.02 0.08,0.04 0.11,0.06 0.05,0.02 0.09,0.05 0.14,0.07 0.05,0.02 0.1,0.03 0.15,0.05 0.04,0.01 0.08,0.03 0.12,0.04 0.09,0.02 0.19,0.03 0.28,0.03 h 13.06 c 0.8,0 1.45,-0.65 1.45,-1.45 v -48.96 c 0,-0.8 -0.65,-1.45 -1.45,-1.45 h -6.53 z m -1.45,43.28 -3.63,3.63 v -44.01 h 3.63 z m -1.58,5.68 3.63,-3.62 h 4.48 v 3.62 h -8.1 z m 8.1,-6.53 h -3.63 v -39.53 h 3.63 z m 63.91,18.72 23.86,-20.88 -57.39,-111.59 -23.86,20.88 z m -44.33,-14.73 v -58.39 l -10.16,7.62 v 58.39 z"
         id="path96" />
      <path
         class="k"
         d="m 1083.55,519.23 v 9.84 c 0,0.46 -0.22,0.89 -0.58,1.17 l -13.12,9.84 c 0,0 -0.01,0 -0.02,0 -0.24,0.18 -0.54,0.29 -0.86,0.29 h -5.63 c -2.45,36.4 -32.83,65.26 -69.83,65.26 -37,0 -70,-31.4 -70,-70 0,-38.6 31.4,-70 70,-70 6.03,0 10.94,4.91 10.94,10.94 0,6.03 -4.91,10.94 -10.94,10.94 -26.54,0 -48.13,21.59 -48.13,48.12 0,26.53 21.59,48.13 48.13,48.13 24.94,0 45.5,-19.07 47.89,-43.39 h -18.36 c -0.8,0 -1.46,-0.65 -1.46,-1.46 v -9.84 c 0,-0.47 0.22,-0.87 0.56,-1.14 0,0 0.01,-0.02 0.02,-0.03 l 13.12,-9.84 c 0.25,-0.19 0.56,-0.29 0.88,-0.29 h 4.85 c -1.67,-2.37 -2.66,-5.27 -2.66,-8.39 0,-8.04 6.54,-14.58 14.58,-14.58 8.04,0 14.58,6.54 14.58,14.58 0,3.12 -0.99,6.01 -2.66,8.39 h 17.25 c 0,0 0,0 0.01,0 0.22,0 0.44,0.05 0.64,0.15 0.49,0.25 0.81,0.75 0.81,1.3 z m -155.52,31.08 c -0.34,-2.81 -0.52,-5.64 -0.52,-8.48 0,-38.6 31.4,-70 70,-70 0.92,0 1.82,0.11 2.7,0.34 -1.44,-2.2 -3.93,-3.62 -6.71,-3.62 -36.99,0 -67.08,30.09 -67.08,67.08 0,4.99 0.54,9.9 1.61,14.67 v 0 z m 40.23,29.72 c 8.26,6.33 18.49,9.93 29.25,9.93 26.54,0 48.13,-21.59 48.13,-48.12 0,-0.5 0.04,-0.98 0.1,-1.46 h -1.42 c -2.4,25.93 -24.27,46.3 -50.82,46.3 -9.04,0 -17.67,-2.33 -25.24,-6.65 z m 99.25,-42.57 v -6.93 h -43.02 v 6.93 z m -30.87,-16.77 -9.24,6.93 h 41.08 l 9.24,-6.93 h -15.59 c -2.51,2.05 -5.72,3.28 -9.2,3.28 -3.48,0 -6.69,-1.23 -9.2,-3.28 h -7.08 z m 24.67,-11.3 c 0,-2.81 -2.29,-5.1 -5.11,-5.1 -2.82,0 -5.1,2.29 -5.1,5.1 0,2.81 2.29,5.1 5.1,5.1 2.81,0 5.11,-2.29 5.11,-5.1 z m 19.32,12.76 -10.21,7.66 v 6.2 l 10.21,-7.66 z"
         id="path98" />
      <path
         class="k"
         d="m 1206.72,534.43 c 0.31,0.28 0.5,0.68 0.5,1.13 v 17.14 c 0,0.84 -0.68,1.52 -1.52,1.52 h -82.26 c -0.38,0 -0.72,-0.14 -1,-0.38 l -27.42,-23.99 c -0.33,-0.29 -0.52,-0.71 -0.52,-1.15 v -17.14 c 0,-0.6 0.35,-1.14 0.9,-1.39 l 0.63,-0.14 h 82.26 c 0.37,0 0.73,0.13 1,0.38 l 7.75,6.78 c 0.37,0.28 0.62,0.72 0.61,1.3 v 8.69 h 10.23 c 0.37,0 0.72,0.13 1,0.38 l 7.85,6.88 z m -0.01,51.39 c 0.32,0.3 0.52,0.7 0.52,1.15 v 17.14 c 0,0.84 -0.68,1.52 -1.52,1.52 h -82.26 c -0.38,0 -0.72,-0.14 -0.98,-0.37 l -27.44,-24 c -0.33,-0.29 -0.52,-0.71 -0.52,-1.14 v -17.14 c 0,-0.6 0.35,-1.14 0.9,-1.39 0.2,-0.09 0.41,-0.14 0.63,-0.14 h 82.26 c 0.37,0 0.72,0.13 1,0.38 l 7.75,6.78 c 0.38,0.28 0.62,0.72 0.62,1.22 v 8.76 c 0,0 10.22,0 10.22,0 0.37,0 0.73,0.13 1,0.38 l 7.84,6.85 z m 0.02,-102.81 c 0.31,0.28 0.5,0.68 0.5,1.12 v 17.14 c 0,0.84 -0.68,1.52 -1.52,1.52 h -82.26 c -0.38,0 -0.72,-0.14 -1,-0.38 l -27.42,-23.99 c -0.33,-0.29 -0.52,-0.71 -0.52,-1.15 v -17.14 c 0,-0.6 0.35,-1.14 0.89,-1.39 l 0.63,-0.14 h 82.26 c 0.37,0 0.73,0.13 1,0.38 l 7.75,6.78 c 0.37,0.28 0.62,0.72 0.61,1.3 v 8.69 h 10.23 c 0.37,0 0.72,0.13 1,0.38 z m -84.8,1.81 -24.37,-21.33 v 13.09 l 24.37,21.33 z m 0,51.41 -24.37,-21.33 v 13.09 l 24.37,21.33 z m 0,51.41 -24.37,-21.33 v 13.09 l 24.37,21.33 z m -21.84,-125.98 23.94,20.95 h 77.64 l -4.35,-3.81 h -54.27 c -0.37,0 -0.72,-0.13 -1,-0.38 l -11.75,-10.28 c -0.48,-0.42 -0.65,-1.09 -0.42,-1.68 0.23,-0.59 0.79,-0.99 1.43,-0.99 h 50.79 l -4.35,-3.81 h -77.64 z m 0,51.41 23.94,20.95 h 77.64 l -4.35,-3.81 h -54.27 c -0.37,0 -0.72,-0.13 -1,-0.38 l -11.75,-10.28 c -0.48,-0.42 -0.64,-1.09 -0.42,-1.68 0.22,-0.59 0.79,-0.99 1.43,-0.99 h 50.79 l -4.35,-3.81 h -77.64 z m 0,51.41 23.94,20.95 h 77.64 l -4.35,-3.81 h -54.27 c -0.37,0 -0.72,-0.13 -1,-0.38 l -11.75,-10.28 c -0.48,-0.42 -0.65,-1.09 -0.42,-1.68 0.22,-0.59 0.79,-0.99 1.43,-0.99 h 50.79 l -4.35,-3.81 h -77.64 z m 104.1,-13.33 v -14.09 h -79.21 v 14.09 z m 0,51.41 v -14.09 h -79.21 v 14.09 z m 0,-102.83 v -14.09 h -79.21 v 14.09 z"
         id="path100" />
      <path
         class="k"
         d="m 1330.03,586.11 c 0.11,0.21 0.16,0.45 0.16,0.68 0,0.02 0,0.04 0,0.06 0,0.02 0,0.04 0,0.05 -0.03,0.45 -0.25,0.88 -0.63,1.16 l -24.05,17.18 c -0.26,0.18 -0.57,0.28 -0.89,0.28 h -79.03 c -0.66,0 -1.25,-0.43 -1.46,-1.06 -0.05,-0.15 -0.07,-0.31 -0.07,-0.46 0,0 0,0 0,0 v 0 -54.59 c 0,-0.49 0.24,-0.96 0.64,-1.24 l 10.05,-7.18 h -9.08 c -0.79,0 -1.44,-0.61 -1.51,-1.38 -0.06,-0.17 -0.1,-0.35 -0.1,-0.53 v -61.85 c 0,-0.49 0.24,-0.96 0.64,-1.24 l 4.81,-3.44 c 0.26,-0.18 0.57,-0.28 0.89,-0.28 h 3.9 l 6.94,-5.77 v -1.54 c 0,-0.49 0.24,-0.96 0.64,-1.24 l 6.87,-4.91 c 0,0 0.01,0 0.02,-0.01 0.02,-0.01 0.03,-0.02 0.05,-0.03 0.06,-0.04 0.12,-0.07 0.18,-0.1 0.02,-0.01 0.05,-0.02 0.07,-0.03 0.08,-0.03 0.16,-0.06 0.25,-0.08 0,0 0.01,0 0.02,0 0.08,-0.02 0.17,-0.02 0.25,-0.02 0.01,0 0.02,0 0.04,0 h 48.1 c 17.89,0 32.45,14.56 32.45,32.45 0,10.2 -4.73,19.31 -12.11,25.26 -0.04,0.05 -11.72,8.58 -19.75,14.44 h 2.76 c 0.58,0 1.1,0.33 1.36,0.84 l 27.57,54.59 z m -102.91,-50 21,-15 v -58.09 l -3.82,2.73 v 52.22 c 0,0.49 -0.24,0.96 -0.64,1.24 l -10.31,7.36 c -0.26,0.19 -0.58,0.28 -0.89,0.28 -0.24,0 -0.48,-0.05 -0.7,-0.17 -0.51,-0.26 -0.83,-0.79 -0.83,-1.36 v -50.01 l -3.82,2.69 v 58.09 z m 0,14.08 v 50.84 l 21,-15 v -50.84 z m 24.05,-29.82 h 46.58 c 16.21,0 29.4,-13.19 29.4,-29.4 0,-16.21 -13.19,-29.4 -29.4,-29.4 h -46.58 v 58.79 z m 75.02,64.9 -26.03,-51.54 h -48.99 v 51.54 z"
         id="path102" />
    </g>
  </g>
  <g
     id="c"
     transform="translate(-740.33,-108.43)">
    <path
       class="j"
       d="m 895.92,284.59 c 2.28,0 4.32,-0.44 5.9,-1.19 v 4.91 l -11.81,10.33 v -15.23 c 1.58,0.75 3.62,1.19 5.9,1.19 z m 5.9,68.3 v 5.9 c 0,0.61 -2.07,2.11 -5.9,2.11 -3.83,0 -5.9,-1.5 -5.9,-2.11 v -5.9 z m 0,-73.78 c 0,0.61 -2.07,2.11 -5.9,2.11 -3.83,0 -5.9,-1.5 -5.9,-2.11 0,-0.61 2.07,-2.11 5.9,-2.11 3.83,0 5.9,1.5 5.9,2.11 z m 0,39.63 v 3.71 l -11.8,10.33 v -14.04 z"
       id="path107" />
    <path
       class="j"
       d="m 1038.57,432.55 c -7.41,0 -13.54,-5.57 -14.44,-12.74 h 4.6 c 0.86,4.65 4.94,8.19 9.84,8.19 4.9,0 8.98,-3.53 9.84,-8.19 h 4.61 c -0.9,7.17 -7.03,12.74 -14.44,12.74 v 0 z m 32.91,-120.98 c 1.2,0.46 2.37,0.98 3.51,1.57 l -45.79,103.03 h -4.21 z m 6.67,3.41 c 3.37,2.2 6.34,4.97 8.77,8.16 l -41.83,94.11 c -0.1,0.23 -0.15,0.48 -0.15,0.73 0,0 0,0 0,0.01 0,3.51 -2.86,6.37 -6.37,6.37 -3.51,0 -6.17,-2.67 -6.35,-6.02 z m -24.39,101.19 h -4.21 l 39.76,-89.45 c 0.84,1.44 1.58,2.94 2.21,4.5 l -37.75,84.95 z m 39.32,-143.74 -6.62,14.9 c -1.15,-0.56 -2.32,-1.08 -3.51,-1.56 l 5.93,-13.34 z m 6.12,23.08 c -2.96,-2.44 -6.14,-4.61 -9.51,-6.49 l 5.85,-13.17 c 1.76,2.86 4.92,4.77 8.52,4.77 0.62,0 1.22,-0.06 1.82,-0.17 l -6.69,15.06 z m 18.44,-23.08 -12.66,28.48 c -0.94,-1 -1.92,-1.96 -2.92,-2.89 l 11.37,-25.59 h 4.2 z"
       id="path109" />
    <path
       class="j"
       d="M 1173.29,292.6 1151.45,277 h 59.24 c 3.78,0 7.36,1.19 10.4,3.48 l 17,12.14 c -0.28,-0.01 -0.56,-0.02 -0.84,-0.02 z m -1.52,41 v 0 c 0.28,0.2 0.61,0.31 0.97,0.31 h 9.38 l 18.89,11.81 h -23.99 l -24.96,-15.6 h 14.83 l 4.87,3.48 z m 2.66,-3.05 v -4.22 h 62.99 c 7.11,0 12.9,-5.78 12.9,-12.9 0,-0.03 0,-0.05 0,-0.08 0,-0.03 0,-0.05 0,-0.08 0,-0.08 0,-0.16 0,-0.23 0,-0.14 0,-0.28 -0.02,-0.43 -0.06,-1.26 -0.3,-2.51 -0.72,-3.72 -0.06,-0.16 -0.13,-0.3 -0.23,-0.43 -1.96,-4.81 -6.63,-8.28 -11.92,-8.28 h -62.99 v -4.22 h 62.82 c 9.53,0 17.29,7.76 17.29,17.29 0,9.53 -7.76,17.28 -17.29,17.28 h -62.82 z m 0,-7.74 v -4.21 h 62.99 c 3.65,0 7.06,-1.56 9.45,-4.13 -0.58,4.7 -4.6,8.34 -9.45,8.34 z m 3.79,110.19 v -83.9 h 26.98 V 433 Z m 22.77,-78 c 0,-0.93 -0.76,-1.69 -1.69,-1.69 h -15.18 c -0.93,0 -1.69,0.76 -1.69,1.69 v 72.09 c 0,0.93 0.76,1.69 1.69,1.69 h 15.18 c 0.93,0 1.69,-0.76 1.69,-1.69 z m 20.87,78 v -78.95 l 42.91,78.95 z"
       id="path111" />
  </g>
  <g
     id="d"
     transform="translate(-740.33,-108.43)">
    <path
       class="i"
       d="m 886.92,308 h 57.34 v 8.01 h -57.34 z m 0,42.16 v -8.01 h 57.34 v 8.01 z m 84.89,-68.72 -26.5,23.19 h -55.59 l 26.5,-23.19 z m -26.5,57.34 h -55.59 l 22.16,-19.39 h 34.06 c 0.42,0 0.79,-0.16 1.09,-0.41 0,0 0.02,0 0.03,-0.01 l 3.86,-3.38 h 20.89 z m -38.54,-19.39 -0.87,0.76 v -0.76 z m 0,0 z m 67.85,-29.01 -26.98,23.61 v -6.9 l 26.98,-23.61 z m 0,34.15 -26.98,23.61 v -6.9 l 26.98,-23.61 z"
       id="path114" />
    <path
       class="i"
       d="m 1098.36,343.13 c -0.95,-20.48 -17.91,-36.85 -38.62,-36.85 -20.71,0 -37.67,16.37 -38.62,36.85 h -20.94 c 0.97,-32.02 27.31,-57.77 59.56,-57.77 32.25,0 58.6,25.75 59.56,57.77 z"
       id="path116" />
    <path
       class="i"
       d="m 1148.57,313.04 v -33.8 l 23.19,16.56 v 3.45 l -12.51,-8.94 c -0.51,-0.37 -1.19,-0.42 -1.75,-0.13 -0.56,0.29 -0.91,0.87 -0.91,1.5 v 22.77 c 0,0.54 0.26,1.06 0.7,1.37 l 14.47,10.34 v 3.44 z m 0,19.09 26.98,16.86 v 83.29 l -26.98,-16.86 z m 11.38,-18.55 v -3.45 l 11.8,8.43 v 3.45 z m 26.56,108.25 h 5.21 l 4.21,4.21 h -9.42 z m 21.99,-75.2 c 0,0 0,0 -0.01,-0.01 l -16.28,-10.18 v -1.89 h 3.9 l 23.08,14.43 v 83.29 l -9.91,-6.19 v -78.04 c 0,-0.6 -0.31,-1.12 -0.78,-1.42 v 0 z m -14.4,72.81 v -62.12 h 4.21 v 66.33 z"
       id="path118" />
  </g>
  <g
     id="e"
     transform="translate(-740.33,-108.43)">
    <path
       id="f"
       class="k"
       d="m 977.55,290.62 c 0,0.49 -0.21,0.95 -0.58,1.27 l -22.64,19.81 h 21.53 c 0.7,0 1.33,0.44 1.58,1.09 0.07,0.19 0.1,0.38 0.11,0.57 0,0 0,0.01 0,0.02 v 11.38 c 0,0.49 -0.21,0.95 -0.58,1.27 l -30.35,26.56 c 0,0 -0.02,0 -0.02,0.01 -0.3,0.25 -0.67,0.41 -1.09,0.41 h -40.05 v 3.07 l 26.45,70.54 c 0.07,0.19 0.11,0.39 0.11,0.59 0,7.34 -22.2,9.28 -33.94,9.28 -11.74,0 -33.94,-1.94 -33.94,-9.28 0,-0.18 0.03,-0.36 0.09,-0.53 l 22.68,-68.04 v -5.63 h -2.11 c -0.93,0 -1.69,-0.76 -1.69,-1.69 v -11.38 c 0,-0.5 0.22,-0.94 0.56,-1.25 0,0 0.01,-0.02 0.02,-0.02 l 3.22,-2.82 v -16.99 h -2.11 c -0.93,0 -1.69,-0.76 -1.69,-1.69 v -11.38 c 0,-0.5 0.22,-0.94 0.56,-1.25 0,0 0.01,-0.02 0.02,-0.02 l 3.22,-2.82 v -22.48 c 0,-3.12 3.99,-5.48 9.28,-5.48 5.29,0 9.27,2.36 9.27,5.48 v 6.24 l 8.59,-7.51 c 0.31,-0.27 0.7,-0.42 1.11,-0.42 h 60.72 c 0.23,0 0.47,0.05 0.69,0.15 0.6,0.27 0.99,0.87 0.99,1.54 v 11.38 z m -91.06,24.88 h 57.34 v -8.01 h -57.34 z m 57.34,34.15 v -8.01 h -57.34 v 8.01 z m -28.03,-68.72 -26.5,23.19 h 55.59 l 26.5,-23.19 z m 55.59,34.15 H 950.5 l -3.86,3.38 c 0,0 -0.02,0 -0.03,0.01 -0.29,0.25 -0.67,0.41 -1.09,0.41 h -34.06 l -22.16,19.39 h 55.59 z M 896.2,277.14 c -3.83,0 -5.9,1.49 -5.9,2.11 0,0.62 2.07,2.11 5.9,2.11 3.83,0 5.9,-1.5 5.9,-2.11 0,-0.61 -2.07,-2.11 -5.9,-2.11 z m 0,7.59 c -2.28,0 -4.32,-0.44 -5.9,-1.19 v 15.23 l 11.8,-10.33 v -4.91 c -1.58,0.75 -3.62,1.19 -5.9,1.19 v 0 z m -5.9,34.15 v 14.04 l 11.81,-10.33 v -3.71 z m 0,34.15 v 5.9 c 0,0.61 2.07,2.11 5.9,2.11 3.83,0 5.9,-1.5 5.9,-2.11 v -5.9 z m 15.18,-34.15 z m 0,0 v 0.76 l 0.87,-0.76 z m 68.72,-35.91 -26.98,23.61 v 6.9 l 26.98,-23.61 z m 0,34.15 -26.98,23.61 v 6.9 l 26.98,-23.61 z" />
    <path
       id="g"
       class="k"
       d="m 1108.62,304.92 c 8.7,10.83 13.91,24.58 13.91,39.52 0,33.49 -26.17,60.97 -59.14,63.09 l -7.79,17.67 c 0,0 -0.02,0.03 -0.02,0.04 -2.77,6.51 -9.23,11.08 -16.74,11.08 -10.03,0 -18.2,-8.16 -18.2,-18.2 0,0 0,-0.02 0,-0.02 0,-0.11 0.01,-0.21 0.03,-0.32 0,-0.02 0.01,-0.04 0.02,-0.07 0.02,-0.09 0.05,-0.18 0.08,-0.26 0,-0.02 0.01,-0.04 0.02,-0.05 0,0 0,-0.01 0,-0.02 l 7.85,-17.67 c -19.41,-10.81 -32.57,-31.54 -32.57,-55.28 0,-34.86 28.36,-63.23 63.23,-63.23 7.17,0 14.07,1.2 20.5,3.41 l 6.49,-14.61 c 0.29,-0.66 0.94,-1.08 1.66,-1.08 h 8.19 c 0.62,0 1.19,0.31 1.53,0.83 0.19,0.3 0.29,0.64 0.29,0.98 0,0 0,0.01 0,0.02 0,3.51 2.86,6.37 6.37,6.37 1.46,0 2.87,-0.51 4,-1.44 l 2.52,-5.67 c 0.29,-0.66 0.94,-1.08 1.66,-1.08 h 8.19 c 0.62,0 1.19,0.31 1.53,0.83 0.19,0.3 0.29,0.63 0.29,0.98 0,0 0,0.01 0,0.02 0,0.02 0,0.05 0,0.07 v 0 c -0.02,3.95 -1.33,7.75 -3.67,10.86 l -10.24,23.24 z m 10.24,37.7 c -0.96,-32.02 -27.31,-57.77 -59.56,-57.77 -32.25,0 -58.6,25.75 -59.56,57.77 h 20.94 c 0.95,-20.48 17.91,-36.84 38.62,-36.84 20.71,0 37.67,16.37 38.62,36.84 z m -78.68,31.14 28.08,-63.18 c -2.86,-0.76 -5.87,-1.17 -8.96,-1.17 -19.31,0 -35.02,15.71 -35.02,35.02 0,12.26 6.34,23.07 15.91,29.32 z m -1.35,58.92 c 7.41,0 13.54,-5.57 14.44,-12.74 h -4.6 c -0.86,4.65 -4.94,8.19 -9.84,8.19 -4.9,0 -8.98,-3.53 -9.84,-8.19 h -4.61 c 0.9,7.17 7.03,12.74 14.44,12.74 v 0 z m -13.57,-16.37 h 4.2 l 45.79,-103.03 c -1.14,-0.59 -2.3,-1.11 -3.51,-1.57 l -46.49,104.6 z m 7.22,2.17 c 0.18,3.35 2.96,6.02 6.35,6.02 3.39,0 6.37,-2.86 6.37,-6.37 0,0 0,0 0,-0.01 0,-0.25 0.05,-0.49 0.15,-0.73 l 41.83,-94.11 c -2.43,-3.19 -5.4,-5.96 -8.77,-8.16 l -45.94,103.36 z m 59.3,-87.12 c -0.63,-1.56 -1.37,-3.06 -2.21,-4.5 l -39.76,89.45 h 4.2 l 37.76,-84.95 z m 2.03,7.15 -15.6,35.39 c 9.68,-6.24 16.11,-17.11 16.11,-29.46 0,-2.02 -0.18,-4 -0.51,-5.93 z m -4.67,-65.93 -5.93,13.34 c 1.19,0.49 2.36,1.01 3.51,1.56 l 6.62,-14.9 z m 17.01,8.02 c -0.6,0.11 -1.21,0.17 -1.82,0.17 -3.6,0 -6.76,-1.91 -8.52,-4.77 l -5.85,13.17 c 3.37,1.88 6.55,4.05 9.51,6.49 l 6.69,-15.05 z m 7.55,-8.02 -11.37,25.59 c 1,0.93 1.98,1.9 2.92,2.89 l 12.66,-28.48 h -4.2 z" />
    <path
       id="h"
       class="k"
       d="m 1269.35,433.99 c 0.28,0.52 0.27,1.16 -0.03,1.67 -0.3,0.51 -0.86,0.83 -1.45,0.83 h -47.43 c -0.32,0 -0.62,-0.1 -0.88,-0.25 0,0 -0.01,0 -0.02,0 l -10.7,-6.69 v 5.26 c 0,0.93 -0.76,1.69 -1.69,1.69 h -30.35 c -0.1,0 -0.2,-0.01 -0.3,-0.03 -0.03,0 -0.06,-0.01 -0.08,-0.02 -0.08,-0.02 -0.15,-0.04 -0.23,-0.07 -0.02,0 -0.04,-0.01 -0.06,-0.02 -0.08,-0.03 -0.15,-0.07 -0.23,-0.12 l -30.35,-18.97 c -0.49,-0.31 -0.79,-0.85 -0.79,-1.43 v -87.27 c 0,-0.61 0.33,-1.18 0.87,-1.47 0.25,-0.14 0.53,-0.21 0.8,-0.21 0,0 0,0 0.01,0 h 15.98 l -16.97,-12.12 c -0.44,-0.32 -0.7,-0.83 -0.7,-1.37 v -37.94 c 0,-0.93 0.76,-1.69 1.69,-1.69 h 64.5 c 4.51,0 8.8,1.43 12.4,4.13 l 26.53,18.95 c 0.06,0.04 0.11,0.09 0.16,0.14 4.94,3.78 8.13,9.73 8.13,16.41 0,11.39 -9.27,20.66 -20.66,20.66 h -35.48 l 19.3,12.06 c 0.25,0.16 0.45,0.37 0.59,0.62 v 0 c 0,0 47.43,87.27 47.43,87.27 z m -98.03,-104.92 v -3.45 l -14.47,-10.34 c -0.44,-0.32 -0.7,-0.83 -0.7,-1.37 v -22.77 c 0,-0.63 0.35,-1.21 0.91,-1.5 0.56,-0.29 1.24,-0.24 1.75,0.13 l 12.51,8.94 v -3.44 l -23.19,-16.56 v 33.8 z m -23.19,85.82 26.98,16.86 v -83.29 l -26.98,-16.86 z m 89.38,-122.17 c 0.28,0 0.56,0 0.84,0.02 l -17,-12.14 c -3.04,-2.29 -6.63,-3.48 -10.4,-3.48 h -59.24 l 21.84,15.6 z m -70.35,37.52 h -14.83 l 24.96,15.6 h 23.99 l -18.89,-11.81 h -9.38 c -0.36,0 -0.7,-0.12 -0.97,-0.31 v 0 l -4.87,-3.48 z m 4.16,-8.75 v -3.45 l -11.8,-8.43 v 3.45 z m 66.19,9.18 c 9.53,0 17.29,-7.75 17.29,-17.28 0,-9.53 -7.75,-17.29 -17.29,-17.29 h -62.82 v 4.22 h 62.99 c 5.29,0 9.96,3.48 11.92,8.28 0.1,0.13 0.17,0.28 0.23,0.43 0.42,1.21 0.66,2.45 0.72,3.71 0,0.14 0.01,0.28 0.02,0.43 0,0.08 0,0.15 0,0.23 v 0.15 c 0,7.11 -5.78,12.9 -12.9,12.9 h -62.99 v 4.22 h 62.82 z m 0.17,-7.74 c 4.85,0 8.87,-3.65 9.45,-8.34 -2.39,2.57 -5.8,4.13 -9.45,4.13 h -62.99 v 4.21 z m -32.21,110.19 v -83.9 h -26.98 v 83.9 z m -4.21,-5.91 c 0,0.93 -0.76,1.69 -1.69,1.69 h -15.18 c -0.93,0 -1.69,-0.76 -1.69,-1.69 v -72.09 c 0,-0.93 0.76,-1.69 1.69,-1.69 h 15.18 c 0.93,0 1.69,0.76 1.69,1.69 z m -15.18,-1.69 h 9.42 l -4.21,-4.22 h -5.21 z m 21.99,-79.41 c 0.47,0.3 0.78,0.82 0.78,1.42 v 78.03 l 9.91,6.19 v -83.29 l -23.08,-14.43 h -3.9 v 1.88 l 16.28,10.18 c 0,0 0,0 0.01,0.01 v 0 z m -10.18,77.03 V 356.8 h -4.21 v 62.12 z m 67.15,9.98 -42.91,-78.95 v 78.95 z" />
  </g>
</svg>
